<mxfile host="Electron" modified="2024-12-09T03:07:45.406Z" agent="Mozilla/5.0 (Macintosh; Intel Mac OS X 10_15_7) AppleWebKit/537.36 (KHTML, like Gecko) draw.io/22.1.21 Chrome/120.0.6099.109 Electron/28.1.0 Safari/537.36" etag="QMFVRN58xWLmF3U6WOoY" version="22.1.21" type="device">
  <diagram name="第 1 页" id="6HqXooCNs9hSZixjxbYp">
    <mxGraphModel dx="1434" dy="854" grid="0" gridSize="10" guides="1" tooltips="1" connect="1" arrows="1" fold="1" page="1" pageScale="1" pageWidth="827" pageHeight="1169" math="0" shadow="0">
      <root>
        <mxCell id="0" />
        <mxCell id="1" parent="0" />
        <mxCell id="E2lpIcXJlPfrJz5xb_Vi-30" value="[1, 1, 2, 4, 3, 2, 3, 5, 5]" style="text;whiteSpace=wrap;html=1;fontSize=22;align=center;" parent="1" vertex="1">
          <mxGeometry x="234" y="140" width="297" height="39" as="geometry" />
        </mxCell>
        <mxCell id="E2lpIcXJlPfrJz5xb_Vi-37" value="" style="group" parent="1" vertex="1" connectable="0">
          <mxGeometry x="188" y="219" width="353" height="45" as="geometry" />
        </mxCell>
        <mxCell id="E2lpIcXJlPfrJz5xb_Vi-16" value="0" style="rounded=0;whiteSpace=wrap;html=1;fontSize=24;" parent="E2lpIcXJlPfrJz5xb_Vi-37" vertex="1">
          <mxGeometry x="183" width="48" height="45" as="geometry" />
        </mxCell>
        <mxCell id="E2lpIcXJlPfrJz5xb_Vi-18" value="0" style="rounded=0;whiteSpace=wrap;html=1;fontSize=24;" parent="E2lpIcXJlPfrJz5xb_Vi-37" vertex="1">
          <mxGeometry x="244" width="48" height="45" as="geometry" />
        </mxCell>
        <mxCell id="E2lpIcXJlPfrJz5xb_Vi-19" value="1" style="rounded=0;whiteSpace=wrap;html=1;fontSize=24;" parent="E2lpIcXJlPfrJz5xb_Vi-37" vertex="1">
          <mxGeometry x="305" width="48" height="45" as="geometry" />
        </mxCell>
        <mxCell id="E2lpIcXJlPfrJz5xb_Vi-21" value="0" style="rounded=0;whiteSpace=wrap;html=1;fontSize=24;" parent="E2lpIcXJlPfrJz5xb_Vi-37" vertex="1">
          <mxGeometry x="122" width="48" height="45" as="geometry" />
        </mxCell>
        <mxCell id="E2lpIcXJlPfrJz5xb_Vi-22" value="0" style="rounded=0;whiteSpace=wrap;html=1;fontSize=24;" parent="E2lpIcXJlPfrJz5xb_Vi-37" vertex="1">
          <mxGeometry x="61" width="48" height="45" as="geometry" />
        </mxCell>
        <mxCell id="E2lpIcXJlPfrJz5xb_Vi-23" value="..." style="rounded=0;whiteSpace=wrap;html=1;fontSize=24;" parent="E2lpIcXJlPfrJz5xb_Vi-37" vertex="1">
          <mxGeometry width="48" height="45" as="geometry" />
        </mxCell>
        <mxCell id="E2lpIcXJlPfrJz5xb_Vi-38" value="" style="group" parent="1" vertex="1" connectable="0">
          <mxGeometry x="188" y="287" width="353" height="45" as="geometry" />
        </mxCell>
        <mxCell id="E2lpIcXJlPfrJz5xb_Vi-39" value="0" style="rounded=0;whiteSpace=wrap;html=1;fontSize=24;" parent="E2lpIcXJlPfrJz5xb_Vi-38" vertex="1">
          <mxGeometry x="183" width="48" height="45" as="geometry" />
        </mxCell>
        <mxCell id="E2lpIcXJlPfrJz5xb_Vi-40" value="0" style="rounded=0;whiteSpace=wrap;html=1;fontSize=24;" parent="E2lpIcXJlPfrJz5xb_Vi-38" vertex="1">
          <mxGeometry x="244" width="48" height="45" as="geometry" />
        </mxCell>
        <mxCell id="E2lpIcXJlPfrJz5xb_Vi-41" value="1" style="rounded=0;whiteSpace=wrap;html=1;fontSize=24;" parent="E2lpIcXJlPfrJz5xb_Vi-38" vertex="1">
          <mxGeometry x="305" width="48" height="45" as="geometry" />
        </mxCell>
        <mxCell id="E2lpIcXJlPfrJz5xb_Vi-42" value="0" style="rounded=0;whiteSpace=wrap;html=1;fontSize=24;" parent="E2lpIcXJlPfrJz5xb_Vi-38" vertex="1">
          <mxGeometry x="122" width="48" height="45" as="geometry" />
        </mxCell>
        <mxCell id="E2lpIcXJlPfrJz5xb_Vi-43" value="0" style="rounded=0;whiteSpace=wrap;html=1;fontSize=24;" parent="E2lpIcXJlPfrJz5xb_Vi-38" vertex="1">
          <mxGeometry x="61" width="48" height="45" as="geometry" />
        </mxCell>
        <mxCell id="E2lpIcXJlPfrJz5xb_Vi-44" value="..." style="rounded=0;whiteSpace=wrap;html=1;fontSize=24;" parent="E2lpIcXJlPfrJz5xb_Vi-38" vertex="1">
          <mxGeometry width="48" height="45" as="geometry" />
        </mxCell>
        <mxCell id="E2lpIcXJlPfrJz5xb_Vi-45" value="" style="group" parent="1" vertex="1" connectable="0">
          <mxGeometry x="188" y="356" width="353" height="45" as="geometry" />
        </mxCell>
        <mxCell id="E2lpIcXJlPfrJz5xb_Vi-46" value="0" style="rounded=0;whiteSpace=wrap;html=1;fontSize=24;" parent="E2lpIcXJlPfrJz5xb_Vi-45" vertex="1">
          <mxGeometry x="183" width="48" height="45" as="geometry" />
        </mxCell>
        <mxCell id="E2lpIcXJlPfrJz5xb_Vi-47" value="1" style="rounded=0;whiteSpace=wrap;html=1;fontSize=24;" parent="E2lpIcXJlPfrJz5xb_Vi-45" vertex="1">
          <mxGeometry x="244" width="48" height="45" as="geometry" />
        </mxCell>
        <mxCell id="E2lpIcXJlPfrJz5xb_Vi-48" value="0" style="rounded=0;whiteSpace=wrap;html=1;fontSize=24;" parent="E2lpIcXJlPfrJz5xb_Vi-45" vertex="1">
          <mxGeometry x="305" width="48" height="45" as="geometry" />
        </mxCell>
        <mxCell id="E2lpIcXJlPfrJz5xb_Vi-49" value="0" style="rounded=0;whiteSpace=wrap;html=1;fontSize=24;" parent="E2lpIcXJlPfrJz5xb_Vi-45" vertex="1">
          <mxGeometry x="122" width="48" height="45" as="geometry" />
        </mxCell>
        <mxCell id="E2lpIcXJlPfrJz5xb_Vi-50" value="0" style="rounded=0;whiteSpace=wrap;html=1;fontSize=24;" parent="E2lpIcXJlPfrJz5xb_Vi-45" vertex="1">
          <mxGeometry x="61" width="48" height="45" as="geometry" />
        </mxCell>
        <mxCell id="E2lpIcXJlPfrJz5xb_Vi-51" value="..." style="rounded=0;whiteSpace=wrap;html=1;fontSize=24;" parent="E2lpIcXJlPfrJz5xb_Vi-45" vertex="1">
          <mxGeometry width="48" height="45" as="geometry" />
        </mxCell>
        <mxCell id="E2lpIcXJlPfrJz5xb_Vi-52" value="" style="group" parent="1" vertex="1" connectable="0">
          <mxGeometry x="188" y="424" width="353" height="45" as="geometry" />
        </mxCell>
        <mxCell id="E2lpIcXJlPfrJz5xb_Vi-53" value="1" style="rounded=0;whiteSpace=wrap;html=1;fontSize=24;" parent="E2lpIcXJlPfrJz5xb_Vi-52" vertex="1">
          <mxGeometry x="183" width="48" height="45" as="geometry" />
        </mxCell>
        <mxCell id="E2lpIcXJlPfrJz5xb_Vi-54" value="0" style="rounded=0;whiteSpace=wrap;html=1;fontSize=24;" parent="E2lpIcXJlPfrJz5xb_Vi-52" vertex="1">
          <mxGeometry x="244" width="48" height="45" as="geometry" />
        </mxCell>
        <mxCell id="E2lpIcXJlPfrJz5xb_Vi-55" value="0" style="rounded=0;whiteSpace=wrap;html=1;fontSize=24;" parent="E2lpIcXJlPfrJz5xb_Vi-52" vertex="1">
          <mxGeometry x="305" width="48" height="45" as="geometry" />
        </mxCell>
        <mxCell id="E2lpIcXJlPfrJz5xb_Vi-56" value="0" style="rounded=0;whiteSpace=wrap;html=1;fontSize=24;" parent="E2lpIcXJlPfrJz5xb_Vi-52" vertex="1">
          <mxGeometry x="122" width="48" height="45" as="geometry" />
        </mxCell>
        <mxCell id="E2lpIcXJlPfrJz5xb_Vi-57" value="0" style="rounded=0;whiteSpace=wrap;html=1;fontSize=24;" parent="E2lpIcXJlPfrJz5xb_Vi-52" vertex="1">
          <mxGeometry x="61" width="48" height="45" as="geometry" />
        </mxCell>
        <mxCell id="E2lpIcXJlPfrJz5xb_Vi-58" value="..." style="rounded=0;whiteSpace=wrap;html=1;fontSize=24;" parent="E2lpIcXJlPfrJz5xb_Vi-52" vertex="1">
          <mxGeometry width="48" height="45" as="geometry" />
        </mxCell>
        <mxCell id="E2lpIcXJlPfrJz5xb_Vi-59" value="" style="group" parent="1" vertex="1" connectable="0">
          <mxGeometry x="188" y="493" width="353" height="45" as="geometry" />
        </mxCell>
        <mxCell id="E2lpIcXJlPfrJz5xb_Vi-60" value="0" style="rounded=0;whiteSpace=wrap;html=1;fontSize=24;" parent="E2lpIcXJlPfrJz5xb_Vi-59" vertex="1">
          <mxGeometry x="183" width="48" height="45" as="geometry" />
        </mxCell>
        <mxCell id="E2lpIcXJlPfrJz5xb_Vi-61" value="1" style="rounded=0;whiteSpace=wrap;html=1;fontSize=24;" parent="E2lpIcXJlPfrJz5xb_Vi-59" vertex="1">
          <mxGeometry x="244" width="48" height="45" as="geometry" />
        </mxCell>
        <mxCell id="E2lpIcXJlPfrJz5xb_Vi-62" value="1" style="rounded=0;whiteSpace=wrap;html=1;fontSize=24;" parent="E2lpIcXJlPfrJz5xb_Vi-59" vertex="1">
          <mxGeometry x="305" width="48" height="45" as="geometry" />
        </mxCell>
        <mxCell id="E2lpIcXJlPfrJz5xb_Vi-63" value="0" style="rounded=0;whiteSpace=wrap;html=1;fontSize=24;" parent="E2lpIcXJlPfrJz5xb_Vi-59" vertex="1">
          <mxGeometry x="122" width="48" height="45" as="geometry" />
        </mxCell>
        <mxCell id="E2lpIcXJlPfrJz5xb_Vi-64" value="0" style="rounded=0;whiteSpace=wrap;html=1;fontSize=24;" parent="E2lpIcXJlPfrJz5xb_Vi-59" vertex="1">
          <mxGeometry x="61" width="48" height="45" as="geometry" />
        </mxCell>
        <mxCell id="E2lpIcXJlPfrJz5xb_Vi-65" value="..." style="rounded=0;whiteSpace=wrap;html=1;fontSize=24;" parent="E2lpIcXJlPfrJz5xb_Vi-59" vertex="1">
          <mxGeometry width="48" height="45" as="geometry" />
        </mxCell>
        <mxCell id="E2lpIcXJlPfrJz5xb_Vi-66" value="" style="group" parent="1" vertex="1" connectable="0">
          <mxGeometry x="188" y="561" width="353" height="45" as="geometry" />
        </mxCell>
        <mxCell id="E2lpIcXJlPfrJz5xb_Vi-67" value="0" style="rounded=0;whiteSpace=wrap;html=1;fontSize=24;" parent="E2lpIcXJlPfrJz5xb_Vi-66" vertex="1">
          <mxGeometry x="183" width="48" height="45" as="geometry" />
        </mxCell>
        <mxCell id="E2lpIcXJlPfrJz5xb_Vi-68" value="1" style="rounded=0;whiteSpace=wrap;html=1;fontSize=24;" parent="E2lpIcXJlPfrJz5xb_Vi-66" vertex="1">
          <mxGeometry x="244" width="48" height="45" as="geometry" />
        </mxCell>
        <mxCell id="E2lpIcXJlPfrJz5xb_Vi-69" value="0" style="rounded=0;whiteSpace=wrap;html=1;fontSize=24;" parent="E2lpIcXJlPfrJz5xb_Vi-66" vertex="1">
          <mxGeometry x="305" width="48" height="45" as="geometry" />
        </mxCell>
        <mxCell id="E2lpIcXJlPfrJz5xb_Vi-70" value="0" style="rounded=0;whiteSpace=wrap;html=1;fontSize=24;" parent="E2lpIcXJlPfrJz5xb_Vi-66" vertex="1">
          <mxGeometry x="122" width="48" height="45" as="geometry" />
        </mxCell>
        <mxCell id="E2lpIcXJlPfrJz5xb_Vi-71" value="0" style="rounded=0;whiteSpace=wrap;html=1;fontSize=24;" parent="E2lpIcXJlPfrJz5xb_Vi-66" vertex="1">
          <mxGeometry x="61" width="48" height="45" as="geometry" />
        </mxCell>
        <mxCell id="E2lpIcXJlPfrJz5xb_Vi-72" value="..." style="rounded=0;whiteSpace=wrap;html=1;fontSize=24;" parent="E2lpIcXJlPfrJz5xb_Vi-66" vertex="1">
          <mxGeometry width="48" height="45" as="geometry" />
        </mxCell>
        <mxCell id="E2lpIcXJlPfrJz5xb_Vi-73" value="" style="group" parent="1" vertex="1" connectable="0">
          <mxGeometry x="188" y="629" width="353" height="45" as="geometry" />
        </mxCell>
        <mxCell id="E2lpIcXJlPfrJz5xb_Vi-74" value="0" style="rounded=0;whiteSpace=wrap;html=1;fontSize=24;" parent="E2lpIcXJlPfrJz5xb_Vi-73" vertex="1">
          <mxGeometry x="183" width="48" height="45" as="geometry" />
        </mxCell>
        <mxCell id="E2lpIcXJlPfrJz5xb_Vi-75" value="1" style="rounded=0;whiteSpace=wrap;html=1;fontSize=24;" parent="E2lpIcXJlPfrJz5xb_Vi-73" vertex="1">
          <mxGeometry x="244" width="48" height="45" as="geometry" />
        </mxCell>
        <mxCell id="E2lpIcXJlPfrJz5xb_Vi-76" value="1" style="rounded=0;whiteSpace=wrap;html=1;fontSize=24;" parent="E2lpIcXJlPfrJz5xb_Vi-73" vertex="1">
          <mxGeometry x="305" width="48" height="45" as="geometry" />
        </mxCell>
        <mxCell id="E2lpIcXJlPfrJz5xb_Vi-77" value="0" style="rounded=0;whiteSpace=wrap;html=1;fontSize=24;" parent="E2lpIcXJlPfrJz5xb_Vi-73" vertex="1">
          <mxGeometry x="122" width="48" height="45" as="geometry" />
        </mxCell>
        <mxCell id="E2lpIcXJlPfrJz5xb_Vi-78" value="0" style="rounded=0;whiteSpace=wrap;html=1;fontSize=24;" parent="E2lpIcXJlPfrJz5xb_Vi-73" vertex="1">
          <mxGeometry x="61" width="48" height="45" as="geometry" />
        </mxCell>
        <mxCell id="E2lpIcXJlPfrJz5xb_Vi-79" value="..." style="rounded=0;whiteSpace=wrap;html=1;fontSize=24;" parent="E2lpIcXJlPfrJz5xb_Vi-73" vertex="1">
          <mxGeometry width="48" height="45" as="geometry" />
        </mxCell>
        <mxCell id="E2lpIcXJlPfrJz5xb_Vi-80" value="" style="group" parent="1" vertex="1" connectable="0">
          <mxGeometry x="188" y="698" width="353" height="45" as="geometry" />
        </mxCell>
        <mxCell id="E2lpIcXJlPfrJz5xb_Vi-81" value="1" style="rounded=0;whiteSpace=wrap;html=1;fontSize=24;" parent="E2lpIcXJlPfrJz5xb_Vi-80" vertex="1">
          <mxGeometry x="183" width="48" height="45" as="geometry" />
        </mxCell>
        <mxCell id="E2lpIcXJlPfrJz5xb_Vi-82" value="0" style="rounded=0;whiteSpace=wrap;html=1;fontSize=24;" parent="E2lpIcXJlPfrJz5xb_Vi-80" vertex="1">
          <mxGeometry x="244" width="48" height="45" as="geometry" />
        </mxCell>
        <mxCell id="E2lpIcXJlPfrJz5xb_Vi-83" value="1" style="rounded=0;whiteSpace=wrap;html=1;fontSize=24;" parent="E2lpIcXJlPfrJz5xb_Vi-80" vertex="1">
          <mxGeometry x="305" width="48" height="45" as="geometry" />
        </mxCell>
        <mxCell id="E2lpIcXJlPfrJz5xb_Vi-84" value="0" style="rounded=0;whiteSpace=wrap;html=1;fontSize=24;" parent="E2lpIcXJlPfrJz5xb_Vi-80" vertex="1">
          <mxGeometry x="122" width="48" height="45" as="geometry" />
        </mxCell>
        <mxCell id="E2lpIcXJlPfrJz5xb_Vi-85" value="0" style="rounded=0;whiteSpace=wrap;html=1;fontSize=24;" parent="E2lpIcXJlPfrJz5xb_Vi-80" vertex="1">
          <mxGeometry x="61" width="48" height="45" as="geometry" />
        </mxCell>
        <mxCell id="E2lpIcXJlPfrJz5xb_Vi-86" value="..." style="rounded=0;whiteSpace=wrap;html=1;fontSize=24;" parent="E2lpIcXJlPfrJz5xb_Vi-80" vertex="1">
          <mxGeometry width="48" height="45" as="geometry" />
        </mxCell>
        <mxCell id="E2lpIcXJlPfrJz5xb_Vi-87" value="" style="group" parent="1" vertex="1" connectable="0">
          <mxGeometry x="188" y="766" width="353" height="45" as="geometry" />
        </mxCell>
        <mxCell id="E2lpIcXJlPfrJz5xb_Vi-88" value="1" style="rounded=0;whiteSpace=wrap;html=1;fontSize=24;" parent="E2lpIcXJlPfrJz5xb_Vi-87" vertex="1">
          <mxGeometry x="183" width="48" height="45" as="geometry" />
        </mxCell>
        <mxCell id="E2lpIcXJlPfrJz5xb_Vi-89" value="0" style="rounded=0;whiteSpace=wrap;html=1;fontSize=24;" parent="E2lpIcXJlPfrJz5xb_Vi-87" vertex="1">
          <mxGeometry x="244" width="48" height="45" as="geometry" />
        </mxCell>
        <mxCell id="E2lpIcXJlPfrJz5xb_Vi-90" value="1" style="rounded=0;whiteSpace=wrap;html=1;fontSize=24;" parent="E2lpIcXJlPfrJz5xb_Vi-87" vertex="1">
          <mxGeometry x="305" width="48" height="45" as="geometry" />
        </mxCell>
        <mxCell id="E2lpIcXJlPfrJz5xb_Vi-91" value="0" style="rounded=0;whiteSpace=wrap;html=1;fontSize=24;" parent="E2lpIcXJlPfrJz5xb_Vi-87" vertex="1">
          <mxGeometry x="122" width="48" height="45" as="geometry" />
        </mxCell>
        <mxCell id="E2lpIcXJlPfrJz5xb_Vi-92" value="0" style="rounded=0;whiteSpace=wrap;html=1;fontSize=24;" parent="E2lpIcXJlPfrJz5xb_Vi-87" vertex="1">
          <mxGeometry x="61" width="48" height="45" as="geometry" />
        </mxCell>
        <mxCell id="E2lpIcXJlPfrJz5xb_Vi-93" value="..." style="rounded=0;whiteSpace=wrap;html=1;fontSize=24;" parent="E2lpIcXJlPfrJz5xb_Vi-87" vertex="1">
          <mxGeometry width="48" height="45" as="geometry" />
        </mxCell>
        <mxCell id="zAm3wUMKJUZhUnj8oWRE-2" style="edgeStyle=orthogonalEdgeStyle;rounded=0;orthogonalLoop=1;jettySize=auto;html=1;entryX=1;entryY=0.5;entryDx=0;entryDy=0;exitX=1;exitY=0.5;exitDx=0;exitDy=0;" parent="1" source="E2lpIcXJlPfrJz5xb_Vi-19" target="E2lpIcXJlPfrJz5xb_Vi-41" edge="1">
          <mxGeometry relative="1" as="geometry" />
        </mxCell>
        <mxCell id="zAm3wUMKJUZhUnj8oWRE-3" style="edgeStyle=orthogonalEdgeStyle;rounded=0;orthogonalLoop=1;jettySize=auto;html=1;entryX=1;entryY=0.5;entryDx=0;entryDy=0;exitX=1;exitY=0.5;exitDx=0;exitDy=0;" parent="1" source="E2lpIcXJlPfrJz5xb_Vi-48" target="E2lpIcXJlPfrJz5xb_Vi-69" edge="1">
          <mxGeometry relative="1" as="geometry" />
        </mxCell>
        <mxCell id="zAm3wUMKJUZhUnj8oWRE-5" style="edgeStyle=orthogonalEdgeStyle;rounded=0;orthogonalLoop=1;jettySize=auto;html=1;entryX=1;entryY=0.5;entryDx=0;entryDy=0;exitX=1;exitY=0.5;exitDx=0;exitDy=0;" parent="1" source="E2lpIcXJlPfrJz5xb_Vi-62" target="E2lpIcXJlPfrJz5xb_Vi-76" edge="1">
          <mxGeometry relative="1" as="geometry">
            <Array as="points">
              <mxPoint x="588" y="516" />
              <mxPoint x="588" y="652" />
            </Array>
          </mxGeometry>
        </mxCell>
        <mxCell id="zAm3wUMKJUZhUnj8oWRE-6" style="edgeStyle=orthogonalEdgeStyle;rounded=0;orthogonalLoop=1;jettySize=auto;html=1;entryX=1;entryY=0.5;entryDx=0;entryDy=0;exitX=1;exitY=0.5;exitDx=0;exitDy=0;" parent="1" source="E2lpIcXJlPfrJz5xb_Vi-83" target="E2lpIcXJlPfrJz5xb_Vi-90" edge="1">
          <mxGeometry relative="1" as="geometry" />
        </mxCell>
      </root>
    </mxGraphModel>
  </diagram>
</mxfile>
